<mxfile host="app.diagrams.net" agent="Mozilla/5.0 (Windows NT 10.0; Win64; x64) AppleWebKit/537.36 (KHTML, like Gecko) Chrome/130.0.0.0 Safari/537.36" version="24.8.2">
  <diagram name="Сторінка-1" id="AglR2aSOIofDLK4q1AYC">
    <mxGraphModel dx="993" dy="568" grid="1" gridSize="10" guides="1" tooltips="1" connect="1" arrows="1" fold="1" page="1" pageScale="1" pageWidth="827" pageHeight="1169" math="0" shadow="0">
      <root>
        <mxCell id="0" />
        <mxCell id="1" parent="0" />
        <mxCell id="zeUZiP-W2CsjR3VBIQaZ-1" value="Start" style="ellipse;whiteSpace=wrap;html=1;" vertex="1" parent="1">
          <mxGeometry x="340" y="10" width="110" height="50" as="geometry" />
        </mxCell>
        <mxCell id="zeUZiP-W2CsjR3VBIQaZ-2" value="End" style="ellipse;whiteSpace=wrap;html=1;" vertex="1" parent="1">
          <mxGeometry x="420" y="620" width="110" height="50" as="geometry" />
        </mxCell>
        <mxCell id="zeUZiP-W2CsjR3VBIQaZ-7" value="" style="edgeStyle=orthogonalEdgeStyle;rounded=0;orthogonalLoop=1;jettySize=auto;html=1;" edge="1" parent="1" source="zeUZiP-W2CsjR3VBIQaZ-3" target="zeUZiP-W2CsjR3VBIQaZ-4">
          <mxGeometry relative="1" as="geometry" />
        </mxCell>
        <mxCell id="zeUZiP-W2CsjR3VBIQaZ-3" value="Input : weather" style="shape=parallelogram;perimeter=parallelogramPerimeter;whiteSpace=wrap;html=1;fixedSize=1;" vertex="1" parent="1">
          <mxGeometry x="330" y="100" width="130" height="40" as="geometry" />
        </mxCell>
        <mxCell id="zeUZiP-W2CsjR3VBIQaZ-14" value="" style="edgeStyle=orthogonalEdgeStyle;rounded=0;orthogonalLoop=1;jettySize=auto;html=1;" edge="1" parent="1" source="zeUZiP-W2CsjR3VBIQaZ-4" target="zeUZiP-W2CsjR3VBIQaZ-13">
          <mxGeometry relative="1" as="geometry" />
        </mxCell>
        <mxCell id="zeUZiP-W2CsjR3VBIQaZ-15" value="NO" style="edgeLabel;html=1;align=center;verticalAlign=middle;resizable=0;points=[];" vertex="1" connectable="0" parent="zeUZiP-W2CsjR3VBIQaZ-14">
          <mxGeometry x="-0.1238" y="2" relative="1" as="geometry">
            <mxPoint as="offset" />
          </mxGeometry>
        </mxCell>
        <mxCell id="zeUZiP-W2CsjR3VBIQaZ-4" value="weather = &quot;sunny&quot;&lt;div&gt;weather = &quot;rainy&quot;&lt;/div&gt;&lt;div&gt;weather = &quot;cloudy&quot;&lt;/div&gt;&lt;div&gt;weather = &quot;snowy&quot;&lt;/div&gt;&lt;div&gt;weather = &quot;windy&quot;&lt;/div&gt;" style="rhombus;whiteSpace=wrap;html=1;" vertex="1" parent="1">
          <mxGeometry x="277.5" y="170" width="235" height="120" as="geometry" />
        </mxCell>
        <mxCell id="zeUZiP-W2CsjR3VBIQaZ-6" value="" style="endArrow=classic;html=1;rounded=0;exitX=0.5;exitY=1;exitDx=0;exitDy=0;entryX=0.5;entryY=0;entryDx=0;entryDy=0;" edge="1" parent="1" source="zeUZiP-W2CsjR3VBIQaZ-1" target="zeUZiP-W2CsjR3VBIQaZ-3">
          <mxGeometry width="50" height="50" relative="1" as="geometry">
            <mxPoint x="390" y="230" as="sourcePoint" />
            <mxPoint x="440" y="180" as="targetPoint" />
          </mxGeometry>
        </mxCell>
        <mxCell id="zeUZiP-W2CsjR3VBIQaZ-8" value="Weather = &quot;rainy&quot;&amp;nbsp;&lt;div&gt;Weather = &quot;snowy &quot;&lt;/div&gt;" style="rhombus;whiteSpace=wrap;html=1;" vertex="1" parent="1">
          <mxGeometry x="630" y="90" width="165" height="80" as="geometry" />
        </mxCell>
        <mxCell id="zeUZiP-W2CsjR3VBIQaZ-11" value="" style="endArrow=classic;html=1;rounded=0;exitX=1;exitY=0.5;exitDx=0;exitDy=0;entryX=0.5;entryY=0;entryDx=0;entryDy=0;" edge="1" parent="1" source="zeUZiP-W2CsjR3VBIQaZ-4" target="zeUZiP-W2CsjR3VBIQaZ-8">
          <mxGeometry width="50" height="50" relative="1" as="geometry">
            <mxPoint x="395" y="320" as="sourcePoint" />
            <mxPoint x="180" y="350" as="targetPoint" />
            <Array as="points">
              <mxPoint x="530" y="230" />
              <mxPoint x="530" y="50" />
              <mxPoint x="713" y="50" />
            </Array>
          </mxGeometry>
        </mxCell>
        <mxCell id="zeUZiP-W2CsjR3VBIQaZ-12" value="YES" style="edgeLabel;html=1;align=center;verticalAlign=middle;resizable=0;points=[];" vertex="1" connectable="0" parent="zeUZiP-W2CsjR3VBIQaZ-11">
          <mxGeometry x="-0.7227" relative="1" as="geometry">
            <mxPoint y="-50" as="offset" />
          </mxGeometry>
        </mxCell>
        <mxCell id="zeUZiP-W2CsjR3VBIQaZ-13" value="Invalid input" style="shape=parallelogram;perimeter=parallelogramPerimeter;whiteSpace=wrap;html=1;fixedSize=1;" vertex="1" parent="1">
          <mxGeometry x="130" y="130" width="120" height="60" as="geometry" />
        </mxCell>
        <mxCell id="zeUZiP-W2CsjR3VBIQaZ-16" value="Output : &quot;You should wear a coat !&quot;" style="shape=parallelogram;perimeter=parallelogramPerimeter;whiteSpace=wrap;html=1;fixedSize=1;" vertex="1" parent="1">
          <mxGeometry x="550" y="210" width="138.13" height="60" as="geometry" />
        </mxCell>
        <mxCell id="zeUZiP-W2CsjR3VBIQaZ-17" value="Output : &quot;Today you can&lt;div&gt;&amp;nbsp;go without a coat !&quot;&lt;/div&gt;" style="shape=parallelogram;perimeter=parallelogramPerimeter;whiteSpace=wrap;html=1;fixedSize=1;" vertex="1" parent="1">
          <mxGeometry x="720" y="210" width="160" height="60" as="geometry" />
        </mxCell>
        <mxCell id="zeUZiP-W2CsjR3VBIQaZ-18" value="" style="endArrow=classic;html=1;rounded=0;exitX=0;exitY=0.5;exitDx=0;exitDy=0;entryX=0.575;entryY=0.013;entryDx=0;entryDy=0;entryPerimeter=0;" edge="1" parent="1" source="zeUZiP-W2CsjR3VBIQaZ-8" target="zeUZiP-W2CsjR3VBIQaZ-16">
          <mxGeometry width="50" height="50" relative="1" as="geometry">
            <mxPoint x="700" y="240" as="sourcePoint" />
            <mxPoint x="750" y="190" as="targetPoint" />
          </mxGeometry>
        </mxCell>
        <mxCell id="zeUZiP-W2CsjR3VBIQaZ-19" value="YES" style="edgeLabel;html=1;align=center;verticalAlign=middle;resizable=0;points=[];" vertex="1" connectable="0" parent="zeUZiP-W2CsjR3VBIQaZ-18">
          <mxGeometry x="0.0311" y="3" relative="1" as="geometry">
            <mxPoint as="offset" />
          </mxGeometry>
        </mxCell>
        <mxCell id="zeUZiP-W2CsjR3VBIQaZ-20" value="" style="endArrow=classic;html=1;rounded=0;exitX=1;exitY=0.5;exitDx=0;exitDy=0;entryX=0.463;entryY=-0.045;entryDx=0;entryDy=0;entryPerimeter=0;" edge="1" parent="1" source="zeUZiP-W2CsjR3VBIQaZ-8" target="zeUZiP-W2CsjR3VBIQaZ-17">
          <mxGeometry width="50" height="50" relative="1" as="geometry">
            <mxPoint x="700" y="240" as="sourcePoint" />
            <mxPoint x="750" y="190" as="targetPoint" />
          </mxGeometry>
        </mxCell>
        <mxCell id="zeUZiP-W2CsjR3VBIQaZ-21" value="NO" style="edgeLabel;html=1;align=center;verticalAlign=middle;resizable=0;points=[];" vertex="1" connectable="0" parent="zeUZiP-W2CsjR3VBIQaZ-20">
          <mxGeometry x="0.2133" y="-1" relative="1" as="geometry">
            <mxPoint x="2" y="-7" as="offset" />
          </mxGeometry>
        </mxCell>
        <mxCell id="zeUZiP-W2CsjR3VBIQaZ-35" value="" style="edgeStyle=orthogonalEdgeStyle;rounded=0;orthogonalLoop=1;jettySize=auto;html=1;" edge="1" parent="1" source="zeUZiP-W2CsjR3VBIQaZ-22" target="zeUZiP-W2CsjR3VBIQaZ-34">
          <mxGeometry relative="1" as="geometry" />
        </mxCell>
        <mxCell id="zeUZiP-W2CsjR3VBIQaZ-40" value="NO" style="edgeLabel;html=1;align=center;verticalAlign=middle;resizable=0;points=[];" vertex="1" connectable="0" parent="zeUZiP-W2CsjR3VBIQaZ-35">
          <mxGeometry x="-0.1808" y="2" relative="1" as="geometry">
            <mxPoint as="offset" />
          </mxGeometry>
        </mxCell>
        <mxCell id="zeUZiP-W2CsjR3VBIQaZ-56" value="" style="edgeStyle=orthogonalEdgeStyle;rounded=0;orthogonalLoop=1;jettySize=auto;html=1;" edge="1" parent="1" source="zeUZiP-W2CsjR3VBIQaZ-22" target="zeUZiP-W2CsjR3VBIQaZ-44">
          <mxGeometry relative="1" as="geometry" />
        </mxCell>
        <mxCell id="zeUZiP-W2CsjR3VBIQaZ-22" value="Weather = &quot;sunny&quot;" style="rhombus;whiteSpace=wrap;html=1;" vertex="1" parent="1">
          <mxGeometry x="737" y="340" width="90" height="90" as="geometry" />
        </mxCell>
        <mxCell id="zeUZiP-W2CsjR3VBIQaZ-29" value="" style="endArrow=classic;html=1;rounded=0;exitX=0.385;exitY=1.013;exitDx=0;exitDy=0;exitPerimeter=0;entryX=0.5;entryY=0;entryDx=0;entryDy=0;" edge="1" parent="1" source="zeUZiP-W2CsjR3VBIQaZ-17" target="zeUZiP-W2CsjR3VBIQaZ-22">
          <mxGeometry width="50" height="50" relative="1" as="geometry">
            <mxPoint x="550" y="320" as="sourcePoint" />
            <mxPoint x="600" y="270" as="targetPoint" />
          </mxGeometry>
        </mxCell>
        <mxCell id="zeUZiP-W2CsjR3VBIQaZ-30" value="" style="endArrow=classic;html=1;rounded=0;exitX=0.426;exitY=1.036;exitDx=0;exitDy=0;exitPerimeter=0;" edge="1" parent="1" source="zeUZiP-W2CsjR3VBIQaZ-16">
          <mxGeometry width="50" height="50" relative="1" as="geometry">
            <mxPoint x="640" y="320" as="sourcePoint" />
            <mxPoint x="780" y="300" as="targetPoint" />
            <Array as="points">
              <mxPoint x="609" y="300" />
            </Array>
          </mxGeometry>
        </mxCell>
        <mxCell id="zeUZiP-W2CsjR3VBIQaZ-54" value="" style="edgeStyle=orthogonalEdgeStyle;rounded=0;orthogonalLoop=1;jettySize=auto;html=1;" edge="1" parent="1" source="zeUZiP-W2CsjR3VBIQaZ-31" target="zeUZiP-W2CsjR3VBIQaZ-48">
          <mxGeometry relative="1" as="geometry" />
        </mxCell>
        <mxCell id="zeUZiP-W2CsjR3VBIQaZ-31" value="Weather = &quot;windy&quot;" style="rhombus;whiteSpace=wrap;html=1;" vertex="1" parent="1">
          <mxGeometry x="100" y="340" width="90" height="90" as="geometry" />
        </mxCell>
        <mxCell id="zeUZiP-W2CsjR3VBIQaZ-38" value="" style="edgeStyle=orthogonalEdgeStyle;rounded=0;orthogonalLoop=1;jettySize=auto;html=1;" edge="1" parent="1" source="zeUZiP-W2CsjR3VBIQaZ-32" target="zeUZiP-W2CsjR3VBIQaZ-31">
          <mxGeometry relative="1" as="geometry" />
        </mxCell>
        <mxCell id="zeUZiP-W2CsjR3VBIQaZ-43" value="NO" style="edgeLabel;html=1;align=center;verticalAlign=middle;resizable=0;points=[];" vertex="1" connectable="0" parent="zeUZiP-W2CsjR3VBIQaZ-38">
          <mxGeometry x="-0.1426" relative="1" as="geometry">
            <mxPoint x="-1" as="offset" />
          </mxGeometry>
        </mxCell>
        <mxCell id="zeUZiP-W2CsjR3VBIQaZ-55" value="" style="edgeStyle=orthogonalEdgeStyle;rounded=0;orthogonalLoop=1;jettySize=auto;html=1;" edge="1" parent="1" source="zeUZiP-W2CsjR3VBIQaZ-32" target="zeUZiP-W2CsjR3VBIQaZ-47">
          <mxGeometry relative="1" as="geometry" />
        </mxCell>
        <mxCell id="zeUZiP-W2CsjR3VBIQaZ-32" value="Weather = &quot;snowy&quot;" style="rhombus;whiteSpace=wrap;html=1;" vertex="1" parent="1">
          <mxGeometry x="270" y="340" width="90" height="90" as="geometry" />
        </mxCell>
        <mxCell id="zeUZiP-W2CsjR3VBIQaZ-37" value="" style="edgeStyle=orthogonalEdgeStyle;rounded=0;orthogonalLoop=1;jettySize=auto;html=1;" edge="1" parent="1" source="zeUZiP-W2CsjR3VBIQaZ-33" target="zeUZiP-W2CsjR3VBIQaZ-32">
          <mxGeometry relative="1" as="geometry" />
        </mxCell>
        <mxCell id="zeUZiP-W2CsjR3VBIQaZ-42" value="NO" style="edgeLabel;html=1;align=center;verticalAlign=middle;resizable=0;points=[];" vertex="1" connectable="0" parent="zeUZiP-W2CsjR3VBIQaZ-37">
          <mxGeometry x="-0.1618" y="2" relative="1" as="geometry">
            <mxPoint as="offset" />
          </mxGeometry>
        </mxCell>
        <mxCell id="zeUZiP-W2CsjR3VBIQaZ-52" value="" style="edgeStyle=orthogonalEdgeStyle;rounded=0;orthogonalLoop=1;jettySize=auto;html=1;" edge="1" parent="1" source="zeUZiP-W2CsjR3VBIQaZ-33" target="zeUZiP-W2CsjR3VBIQaZ-46">
          <mxGeometry relative="1" as="geometry" />
        </mxCell>
        <mxCell id="zeUZiP-W2CsjR3VBIQaZ-33" value="Weather = &quot;cloudy&quot;" style="rhombus;whiteSpace=wrap;html=1;" vertex="1" parent="1">
          <mxGeometry x="430" y="340" width="90" height="90" as="geometry" />
        </mxCell>
        <mxCell id="zeUZiP-W2CsjR3VBIQaZ-36" value="" style="edgeStyle=orthogonalEdgeStyle;rounded=0;orthogonalLoop=1;jettySize=auto;html=1;" edge="1" parent="1" source="zeUZiP-W2CsjR3VBIQaZ-34" target="zeUZiP-W2CsjR3VBIQaZ-33">
          <mxGeometry relative="1" as="geometry" />
        </mxCell>
        <mxCell id="zeUZiP-W2CsjR3VBIQaZ-41" value="NO" style="edgeLabel;html=1;align=center;verticalAlign=middle;resizable=0;points=[];" vertex="1" connectable="0" parent="zeUZiP-W2CsjR3VBIQaZ-36">
          <mxGeometry x="-0.1011" y="4" relative="1" as="geometry">
            <mxPoint as="offset" />
          </mxGeometry>
        </mxCell>
        <mxCell id="zeUZiP-W2CsjR3VBIQaZ-53" value="" style="edgeStyle=orthogonalEdgeStyle;rounded=0;orthogonalLoop=1;jettySize=auto;html=1;" edge="1" parent="1" source="zeUZiP-W2CsjR3VBIQaZ-34" target="zeUZiP-W2CsjR3VBIQaZ-45">
          <mxGeometry relative="1" as="geometry" />
        </mxCell>
        <mxCell id="zeUZiP-W2CsjR3VBIQaZ-34" value="Weather = &quot;rainy&quot;" style="rhombus;whiteSpace=wrap;html=1;" vertex="1" parent="1">
          <mxGeometry x="590" y="340" width="90" height="90" as="geometry" />
        </mxCell>
        <mxCell id="zeUZiP-W2CsjR3VBIQaZ-44" value="Output :&lt;div&gt;1) &quot;It&#39;s a good day for picnic!&quot;&lt;/div&gt;&lt;div&gt;2) &quot;You can put on ypur favourite sneakers!&quot;&lt;/div&gt;" style="shape=parallelogram;perimeter=parallelogramPerimeter;whiteSpace=wrap;html=1;fixedSize=1;" vertex="1" parent="1">
          <mxGeometry x="750" y="475" width="190" height="70" as="geometry" />
        </mxCell>
        <mxCell id="zeUZiP-W2CsjR3VBIQaZ-45" value="Output :&lt;div&gt;1) &quot;It would be great to read a book at home!&quot;&lt;/div&gt;&lt;div&gt;2) &quot;Rain boots are a great idea!&quot;&lt;/div&gt;" style="shape=parallelogram;perimeter=parallelogramPerimeter;whiteSpace=wrap;html=1;fixedSize=1;" vertex="1" parent="1">
          <mxGeometry x="570" y="475" width="180" height="70" as="geometry" />
        </mxCell>
        <mxCell id="zeUZiP-W2CsjR3VBIQaZ-58" value="" style="edgeStyle=orthogonalEdgeStyle;rounded=0;orthogonalLoop=1;jettySize=auto;html=1;" edge="1" parent="1" source="zeUZiP-W2CsjR3VBIQaZ-46" target="zeUZiP-W2CsjR3VBIQaZ-2">
          <mxGeometry relative="1" as="geometry" />
        </mxCell>
        <mxCell id="zeUZiP-W2CsjR3VBIQaZ-46" value="Output :&lt;div&gt;1) &quot;Maybe visit a museam?&quot;&lt;/div&gt;&lt;div&gt;2) &quot;You can wear any shoes!&quot;&lt;/div&gt;" style="shape=parallelogram;perimeter=parallelogramPerimeter;whiteSpace=wrap;html=1;fixedSize=1;" vertex="1" parent="1">
          <mxGeometry x="386.02" y="475" width="177.97" height="70" as="geometry" />
        </mxCell>
        <mxCell id="zeUZiP-W2CsjR3VBIQaZ-47" value="Output :&lt;div&gt;1) &quot;How about making a snowman?&quot;&lt;/div&gt;&lt;div&gt;2) &quot;You can wear your warm shoes!&quot;&lt;/div&gt;" style="shape=parallelogram;perimeter=parallelogramPerimeter;whiteSpace=wrap;html=1;fixedSize=1;" vertex="1" parent="1">
          <mxGeometry x="202.04000000000002" y="470" width="183.98" height="75" as="geometry" />
        </mxCell>
        <mxCell id="zeUZiP-W2CsjR3VBIQaZ-48" value="Output :&lt;div&gt;1) &quot;If you have a kite you can fly it!&quot;&lt;/div&gt;&lt;div&gt;2) &quot;You can wear any shoes!&quot;&lt;/div&gt;" style="shape=parallelogram;perimeter=parallelogramPerimeter;whiteSpace=wrap;html=1;fixedSize=1;" vertex="1" parent="1">
          <mxGeometry y="470" width="200" height="70" as="geometry" />
        </mxCell>
        <mxCell id="zeUZiP-W2CsjR3VBIQaZ-57" value="" style="endArrow=classic;html=1;rounded=0;exitX=0.5;exitY=1;exitDx=0;exitDy=0;entryX=0.371;entryY=0.005;entryDx=0;entryDy=0;entryPerimeter=0;" edge="1" parent="1" source="zeUZiP-W2CsjR3VBIQaZ-48" target="zeUZiP-W2CsjR3VBIQaZ-2">
          <mxGeometry width="50" height="50" relative="1" as="geometry">
            <mxPoint x="500" y="550" as="sourcePoint" />
            <mxPoint x="480" y="590" as="targetPoint" />
            <Array as="points">
              <mxPoint x="100" y="590" />
              <mxPoint x="450" y="590" />
            </Array>
          </mxGeometry>
        </mxCell>
        <mxCell id="zeUZiP-W2CsjR3VBIQaZ-59" value="" style="endArrow=classic;html=1;rounded=0;exitX=0.5;exitY=1;exitDx=0;exitDy=0;" edge="1" parent="1" source="zeUZiP-W2CsjR3VBIQaZ-47">
          <mxGeometry width="50" height="50" relative="1" as="geometry">
            <mxPoint x="390" y="490" as="sourcePoint" />
            <mxPoint x="294" y="590" as="targetPoint" />
          </mxGeometry>
        </mxCell>
        <mxCell id="zeUZiP-W2CsjR3VBIQaZ-60" value="" style="endArrow=classic;html=1;rounded=0;exitX=0.5;exitY=1;exitDx=0;exitDy=0;entryX=0.639;entryY=0.061;entryDx=0;entryDy=0;entryPerimeter=0;" edge="1" parent="1" source="zeUZiP-W2CsjR3VBIQaZ-44" target="zeUZiP-W2CsjR3VBIQaZ-2">
          <mxGeometry width="50" height="50" relative="1" as="geometry">
            <mxPoint x="610" y="490" as="sourcePoint" />
            <mxPoint x="660" y="440" as="targetPoint" />
            <Array as="points">
              <mxPoint x="845" y="590" />
              <mxPoint x="500" y="590" />
            </Array>
          </mxGeometry>
        </mxCell>
        <mxCell id="zeUZiP-W2CsjR3VBIQaZ-61" value="" style="endArrow=classic;html=1;rounded=0;exitX=0.5;exitY=1;exitDx=0;exitDy=0;" edge="1" parent="1" source="zeUZiP-W2CsjR3VBIQaZ-45">
          <mxGeometry width="50" height="50" relative="1" as="geometry">
            <mxPoint x="610" y="490" as="sourcePoint" />
            <mxPoint x="660" y="590" as="targetPoint" />
          </mxGeometry>
        </mxCell>
      </root>
    </mxGraphModel>
  </diagram>
</mxfile>
